<svg height="512" viewBox="0 0 64 64" width="512" xmlns="http://www.w3.org/2000/svg"><g id="Layer_25" data-name="Layer 25"><path d="m25 54h-4v-4h2v-12h-5v4h-4v-4h-5v12h2v4h-4v-4h-5v12h14 14v-12h-5z" fill="#f4b2b0"/><path d="m28 42 5 4v-2h5v-4h-5v-2z" fill="#f4b2b0"/><path d="m38 8h-4v4h-4v-4h-4v10h12z" fill="#f4b2b0"/><path d="m38 52v-2l-5 4 5 4v-2h5v-4z" fill="#f4b2b0"/><g fill="#b3404a"><path d="m62 11h-18.181a11.984 11.984 0 0 0 -23.638 0h-18.181a1 1 0 0 0 -1 1v6a1 1 0 0 0 1 1h1v30h-1a1 1 0 0 0 -1 1v12a1 1 0 0 0 1 1h28a1 1 0 0 0 1-1v-12a1 1 0 0 0 -1-1h-6v-11a1 1 0 0 0 -1-1h-11v-4h40v28h-19v2h27a1 1 0 0 0 1-1v-43h1a1 1 0 0 0 1-1v-6a1 1 0 0 0 -1-1zm-30-8a10 10 0 1 1 -10 10 10.011 10.011 0 0 1 10-10zm-29 10h17a11.922 11.922 0 0 0 .7 4h-17.7zm12 48h-12v-10h3v3a1 1 0 0 0 1 1h4a1 1 0 0 0 1-1v-3h3zm-7-8v-2h2v2zm17 2a1 1 0 0 0 1-1v-3h3v10h-12v-10h3v3a1 1 0 0 0 1 1zm-1-4v2h-2v-2zm-9-12h2v2h-2zm-2 0v3a1 1 0 0 0 1 1h4a1 1 0 0 0 1-1v-3h3v10h-12v-10zm-3-8v-2h44v2zm49 30h-5v-28h1a1 1 0 0 0 1-1v-4a1 1 0 0 0 -1-1h-46a1 1 0 0 0 -1 1v4a1 1 0 0 0 1 1h1v4h-1a1 1 0 0 0 -1 1v11h-3v-30h16.623a11.974 11.974 0 0 0 20.754 0h16.623zm2-44h-17.7a11.922 11.922 0 0 0 .7-4h17z"/><path d="m12 58h2v2h-2z"/><path d="m9 58h2v2h-2z"/><path d="m26 58h2v2h-2z"/><path d="m23 58h2v2h-2z"/><path d="m19 46h2v2h-2z"/><path d="m16 46h2v2h-2z"/><path d="m38 59a1 1 0 0 0 1-1v-1h4a1 1 0 0 0 1-1v-4a1 1 0 0 0 -1-1h-4v-1a1 1 0 0 0 -1.625-.781l-5 4a1 1 0 0 0 0 1.562l5 4a1 1 0 0 0 .625.219zm-1-3.078-2.4-1.922 2.4-1.922a1 1 0 0 0 1 .922h4v2h-4a1 1 0 0 0 -1 .922z"/><path d="m33.434 37.1a1 1 0 0 0 -1.059.12l-5 4a1 1 0 0 0 0 1.562l5 4a1 1 0 0 0 1.625-.782v-1h4a1 1 0 0 0 1-1v-4a1 1 0 0 0 -1-1h-4v-1a1 1 0 0 0 -.566-.9zm3.566 3.9v2h-4a1 1 0 0 0 -1 .922l-2.4-1.922 2.4-1.922a1 1 0 0 0 1 .922z"/><path d="m45 55h4v2h-4z"/><path d="m45 51h4v2h-4z"/><path d="m40 43h4v2h-4z"/><path d="m40 39h4v2h-4z"/><path d="m26 19h12a1 1 0 0 0 1-1v-10a1 1 0 0 0 -1-1h-12a1 1 0 0 0 -1 1v10a1 1 0 0 0 1 1zm5-10h2v2h-2zm-4 0h2v3a1 1 0 0 0 1 1h4a1 1 0 0 0 1-1v-3h2v8h-10z"/></g></g></svg>