<svg height="512pt" viewBox="0 0 512 512" width="512pt" xmlns="http://www.w3.org/2000/svg"><path d="m25.601562 8.535156h460.796876c9.425781 0 17.066406 7.640625 17.066406 17.066406v460.796876c0 9.425781-7.640625 17.066406-17.066406 17.066406h-460.796876c-9.425781 0-17.066406-7.640625-17.066406-17.066406v-460.796876c0-9.425781 7.640625-17.066406 17.066406-17.066406zm0 0" fill="#d4e1f4"/><path d="m25.601562 8.535156h426.664063c9.425781 0 17.066406 7.640625 17.066406 17.066406v460.796876c0 9.425781-7.640625 17.066406-17.066406 17.066406h-426.664063c-9.425781 0-17.066406-7.640625-17.066406-17.066406v-460.796876c0-9.425781 7.640625-17.066406 17.066406-17.066406zm0 0" fill="#e3e7f2"/><path d="m25.601562 8.535156h460.796876c9.425781 0 17.066406 7.640625 17.066406 17.066406v51.199219h-494.929688v-51.199219c0-9.425781 7.640625-17.066406 17.066406-17.066406zm0 0" fill="#a4c2f7"/><path d="m8.535156 435.199219h494.929688v51.199219c0 9.425781-7.640625 17.066406-17.066406 17.066406h-460.796876c-9.425781 0-17.066406-7.640625-17.066406-17.066406zm0 0" fill="#a4c2f7"/><path d="m25.601562 8.535156h426.664063c9.425781 0 17.066406 7.640625 17.066406 17.066406v51.199219h-460.796875v-51.199219c0-9.425781 7.640625-17.066406 17.066406-17.066406zm0 0" fill="#d4e1f4"/><path d="m8.535156 435.199219h460.796875v51.199219c0 9.425781-7.640625 17.066406-17.066406 17.066406h-426.664063c-9.425781 0-17.066406-7.640625-17.066406-17.066406zm0 0" fill="#d4e1f4"/><path d="m283.929688 177.425781c-6.085938 7.738281-16.082032 11.285157-25.6875 9.117188-9.601563-2.167969-17.101563-9.667969-19.269532-19.273438-2.171875-9.601562 1.378906-19.597656 9.117188-25.683593 4.601562-3.582032 7.058594-9.265626 6.511718-15.070313v-.101563c-.589843-6.226562-4.539062-11.632812-10.289062-14.089843-5.753906-2.453125-12.386719-1.566407-17.292969 2.3125-18.804687 14.792969-26.96875 39.386719-20.742187 62.488281 2.640625 8.96875.257812 18.660156-6.238282 25.378906l-66.707031 66.707032c-6.660156 6.425781-16.234375 8.832031-25.144531 6.320312-22.9375-5.886719-47.1875 2.320312-61.835938 20.925781-3.882812 4.902344-4.773437 11.542969-2.316406 17.296875 2.457032 5.753906 7.863282 9.703125 14.09375 10.289063h.09375c5.804688.546875 11.488282-1.90625 15.070313-6.507813 6.085937-7.742187 16.082031-11.289062 25.683593-9.121094 9.605469 2.171876 17.105469 9.671876 19.273438 19.273438 2.171875 9.605469-1.378906 19.601562-9.117188 25.6875-4.601562 3.578125-7.058593 9.261719-6.511718 15.070312v.09375c.589844 6.226563 4.539062 11.636719 10.292968 14.09375 5.753907 2.457032 12.390626 1.566407 17.296876-2.320312 18.605468-14.644531 26.8125-38.894531 20.921874-61.832031-2.511718-8.910157-.101562-18.484375 6.324219-25.148438l67.414063-67.410156c6.253906-6.300781 15.382812-8.804687 23.976562-6.582031 22.988282 6.019531 47.355469-2.171875 62.039063-20.855469 3.878906-4.902344 4.765625-11.539063 2.3125-17.289063-2.457031-5.753906-7.863281-9.699218-14.089844-10.289062h-.101563c-5.808593-.546875-11.496093 1.910156-15.078124 6.519531zm0 0" fill="#d4e1f4"/><path d="m460.800781 315.734375c0 47.128906-38.207031 85.332031-85.335937 85.332031-47.125 0-85.332032-38.203125-85.332032-85.332031s38.207032-85.335937 85.332032-85.335937c47.128906 0 85.335937 38.207031 85.335937 85.335937zm0 0" fill="#a4c2f7"/><path d="m435.199219 315.734375c0-47.128906-32.472657-85.335937-72.53125-85.335937-40.058594 0-72.535157 38.207031-72.535157 85.335937s32.476563 85.332031 72.535157 85.332031c40.058593 0 72.53125-38.203125 72.53125-85.332031zm0 0" fill="#d4e1f4"/><path d="m426.667969 315.734375c0 28.277344-22.925781 51.199219-51.203125 51.199219-28.273438 0-51.199219-22.921875-51.199219-51.199219s22.925781-51.199219 51.199219-51.199219c28.277344 0 51.203125 22.921875 51.203125 51.199219zm0 0" fill="#d4e1f4"/><path d="m51.199219 42.667969c0 4.710937-3.820313 8.53125-8.53125 8.53125-4.714844 0-8.535157-3.820313-8.535157-8.53125 0-4.714844 3.820313-8.535157 8.535157-8.535157 4.710937 0 8.53125 3.820313 8.53125 8.535157zm0 0" fill="#428dff"/><path d="m85.332031 42.667969c0 4.710937-3.820312 8.53125-8.53125 8.53125-4.714843 0-8.535156-3.820313-8.535156-8.53125 0-4.714844 3.820313-8.535157 8.535156-8.535157 4.710938 0 8.53125 3.820313 8.53125 8.535157zm0 0" fill="#428dff"/><path d="m119.464844 42.667969c0 4.710937-3.820313 8.53125-8.53125 8.53125-4.714844 0-8.535156-3.820313-8.535156-8.53125 0-4.714844 3.820312-8.535157 8.535156-8.535157 4.710937 0 8.53125 3.820313 8.53125 8.535157zm0 0" fill="#428dff"/><path d="m25.601562 503.464844h25.597657c-9.425781 0-17.066407-7.640625-17.066407-17.066406v-460.796876c0-9.425781 7.640626-17.066406 17.066407-17.066406h-25.597657c-9.425781 0-17.066406 7.640625-17.066406 17.066406v460.796876c0 9.425781 7.640625 17.066406 17.066406 17.066406zm0 0" fill="#fff"/><path d="m17.066406 93.867188v392.53125h-17.066406v-392.53125zm0 0" fill="#fff"/><g fill="#428dff"><path d="m8.535156 170.667969c2.257813-.035157 4.421875-.917969 6.058594-2.476563 3.296875-3.363281 3.296875-8.75 0-12.117187l-1.28125-1.023438c-.476562-.324219-.992188-.582031-1.535156-.769531-.484375-.246094-1.003906-.417969-1.539063-.511719-.5625-.09375-1.132812-.152343-1.703125-.167969-2.261718.03125-4.425781.914063-6.058594 2.472657-.773437.816406-1.382812 1.773437-1.792968 2.816406-1.289063 3.183594-.5859378 6.824219 1.792968 9.300781.8125.773438 1.769532 1.378906 2.8125 1.792969 1.027344.4375 2.128907.667969 3.246094.683594zm0 0"/><path d="m486.398438 0h-460.796876c-14.140624 0-25.601562 11.460938-25.601562 25.601562v102.398438c0 4.710938 3.820312 8.535156 8.535156 8.535156 4.710938 0 8.53125-3.824218 8.53125-8.535156v-42.667969h477.867188v341.335938h-477.867188v-230.402344c0-4.710937-3.820312-8.53125-8.53125-8.53125-4.714844 0-8.535156 3.820313-8.535156 8.53125v290.132813c0 14.140624 11.460938 25.601562 25.601562 25.601562h460.796876c14.140624 0 25.601562-11.460938 25.601562-25.601562v-460.796876c0-14.140624-11.460938-25.601562-25.601562-25.601562zm-469.332032 68.265625v-42.664063c0-4.714843 3.820313-8.535156 8.535156-8.535156h460.796876c4.714843 0 8.535156 3.820313 8.535156 8.535156v42.664063zm477.867188 418.132813c0 4.714843-3.820313 8.535156-8.535156 8.535156h-460.796876c-4.714843 0-8.535156-3.820313-8.535156-8.535156v-42.664063h477.867188zm0 0"/><path d="m127.292969 263.175781c-4.539063 4.277344-11.003907 5.835938-16.992188 4.097657-26.207031-6.746094-53.925781 2.625-70.664062 23.890624-5.855469 7.324219-7.167969 17.292969-3.414063 25.882813 3.539063 8.367187 11.242188 14.230469 20.246094 15.414063 9.003906 1.183593 17.960938-2.492188 23.539062-9.660157 3.953126-5.082031 10.453126-7.46875 16.75-6.15625 6.667969 1.382813 11.875 6.589844 13.253907 13.253907 1.324219 6.300781-1.066407 12.804687-6.152344 16.75-7.210937 5.652343-10.859375 14.71875-9.570313 23.789062 1.289063 9.070312 7.320313 16.761719 15.816407 20.179688 8.5 3.421874 18.175781 2.046874 25.386719-3.605469 16.496093-12.902344 26.113281-32.695313 26.0625-53.640625 0-5.738282-.71875-11.453125-2.144532-17.015625-1.757812-5.988281-.203125-12.464844 4.089844-16.996094l67.410156-67.414063c4.117188-4.148437 10.121094-5.808593 15.78125-4.359374 26.269532 6.882812 54.121094-2.476563 70.902344-23.828126 5.851562-7.328124 7.167969-17.292968 3.414062-25.890624-3.539062-8.363282-11.242187-14.230469-20.246093-15.410157-9.003907-1.183593-17.960938 2.492188-23.539063 9.660157-3.960937 5.074218-10.457031 7.457031-16.757812 6.152343-6.664063-1.382812-11.871094-6.59375-13.246094-13.261719-1.320312-6.296874 1.066406-12.796874 6.144531-16.75 11.144531-8.734374 13.101563-24.851562 4.363281-35.996093-8.734374-11.148438-24.851562-13.101563-35.996093-4.367188-21.492188 16.914063-30.816407 45.019531-23.699219 71.425781 1.851562 6.015626.308594 12.5625-4.035156 17.117188zm78.769531-54.613281c8.707031-8.855469 11.9375-21.726562 8.449219-33.644531-5.332031-19.800781 1.664062-40.867188 17.773437-53.546875 2.464844-1.964844 5.8125-2.414063 8.703125-1.164063 2.894531 1.25 4.863281 3.996094 5.121094 7.136719.265625 2.90625-.972656 5.75-3.285156 7.535156-10.414063 8.085938-15.226563 21.464844-12.347657 34.332032 2.878907 12.871093 12.929688 22.921874 25.800782 25.800781 12.871094 2.878906 26.246094-1.929688 34.332031-12.347657 1.804687-2.34375 4.691406-3.585937 7.628906-3.285156 3.128907.285156 5.84375 2.257813 7.078125 5.144532 1.234375 2.886718.785156 6.214843-1.171875 8.671874-12.578125 16.015626-33.453125 23.050782-53.164062 17.917969-11.527344-2.976562-23.769531.371094-32.175781 8.800781l-67.414063 67.410157c-8.574219 8.78125-11.828125 21.460937-8.535156 33.28125 1.066406 4.183593 1.605469 8.484375 1.605469 12.800781.035156 15.707031-7.179688 30.554688-19.550782 40.234375-2.4375 1.964844-5.769531 2.402344-8.636718 1.136719-2.816407-1.171875-4.796876-3.761719-5.1875-6.789063-.390626-3.027343.867187-6.03125 3.292968-7.882812 10.457032-8.21875 15.171875-21.769531 12.074219-34.703125-3.09375-12.929688-13.433594-22.878906-26.476563-25.472656-2.1875-.425782-4.410156-.640626-6.640624-.640626-10.445313-.023437-20.320313 4.765626-26.777344 12.980469-1.847656 2.429688-4.851563 3.683594-7.878906 3.292969-3.027344-.390625-5.617188-2.371094-6.789063-5.1875-1.261719-2.867188-.824219-6.195312 1.136719-8.636719 12.554687-15.953125 33.347656-22.984375 53.007812-17.917969 11.820313 3.285157 24.5.035157 33.28125-8.535156zm0 0"/><path d="m375.464844 256c-32.988282 0-59.730469 26.742188-59.730469 59.734375 0 32.988281 26.742187 59.730469 59.730469 59.730469 32.992187 0 59.734375-26.742188 59.734375-59.730469-.035157-32.976563-26.757813-59.695313-59.734375-59.734375zm0 102.398438c-23.5625 0-42.664063-19.101563-42.664063-42.664063 0-23.566406 19.101563-42.667969 42.664063-42.667969 23.566406 0 42.667968 19.101563 42.667968 42.667969-.027343 23.550781-19.113281 42.636719-42.667968 42.664063zm0 0"/><path d="m392.535156 213.332031c4.710938 0 8.53125-3.820312 8.53125-8.53125 0-4.714843-3.820312-8.535156-8.53125-8.535156h-34.136718c-4.710938 0-8.53125 3.820313-8.53125 8.535156 0 4.710938 3.820312 8.53125 8.53125 8.53125h8.535156v8.96875c-45.039063 4.011719-80.855469 39.5-85.273438 84.5-4.417968 45.003907 23.808594 86.78125 67.207032 99.472657 43.402343 12.695312 89.691406-7.289063 110.21875-47.578126 20.527343-40.292968 9.480468-89.488281-26.300782-117.132812l9.617188-15.113281c2.53125-3.976563 1.359375-9.253907-2.621094-11.785157-3.976562-2.53125-9.253906-1.359374-11.785156 2.621094l-9.589844 15.078125c-10.707031-5.558593-22.394531-8.976562-34.40625-10.0625v-8.96875zm59.730469 102.402344c0 42.414063-34.382813 76.800781-76.800781 76.800781-42.414063 0-76.796875-34.386718-76.796875-76.800781 0-42.417969 34.382812-76.800781 76.796875-76.800781 42.398437.046875 76.753906 34.402344 76.800781 76.800781zm0 0"/><path d="m381.5 309.699219c-3.347656-3.234375-8.671875-3.1875-11.960938.105469-3.292968 3.292968-3.339843 8.613281-.105468 11.960937l17.066406 17.066406c3.347656 3.234375 8.671875 3.1875 11.960938-.101562 3.292968-3.292969 3.339843-8.617188.105468-11.964844zm0 0"/><path d="m338.832031 113.433594c-3.332031-3.332032-8.734375-3.332032-12.066406 0l-17.066406 17.066406c-3.332031 3.332031-3.332031 8.734375 0 12.066406l17.066406 17.066406c3.347656 3.234376 8.671875 3.1875 11.964844-.105468 3.289062-3.289063 3.335937-8.613282.101562-11.960938l-2.5-2.5h22.066407c4.714843 0 8.535156 3.820313 8.535156 8.535156v17.066407c0 4.710937 3.820312 8.53125 8.53125 8.53125 4.714844 0 8.535156-3.820313 8.535156-8.53125v-17.066407c0-14.140624-11.460938-25.601562-25.601562-25.601562h-22.066407l2.5-2.5c3.332031-3.332031 3.332031-8.734375 0-12.066406zm0 0"/><path d="m224.367188 355.898438c3.332031 3.332031 8.734374 3.332031 12.066406 0l17.066406-17.066407c3.332031-3.332031 3.332031-8.734375 0-12.066406l-17.066406-17.066406c-3.347656-3.234375-8.671875-3.1875-11.960938.105469-3.292968 3.292968-3.339844 8.613281-.105468 11.960937l2.5 2.5h-39.132813c-4.714844 0-8.535156 3.820313-8.535156 8.535156 0 4.710938 3.820312 8.53125 8.535156 8.53125h39.132813l-2.5 2.5c-3.332032 3.332031-3.332032 8.734375 0 12.066407zm0 0"/></g></svg>