<svg xmlns="http://www.w3.org/2000/svg"  viewBox="0 0 100 100" width="100px" height="100px"><circle cx="77" cy="13" r="1" fill="#f1bc19"/><circle cx="50" cy="50" r="37" fill="#e6edb7"/><circle cx="83" cy="15" r="4" fill="#f1bc19"/><circle cx="87" cy="24" r="2" fill="#9f8066"/><circle cx="81" cy="76" r="2" fill="#fbcd59"/><circle cx="15" cy="64" r="4" fill="#fbcd59"/><circle cx="25" cy="87" r="2" fill="#9f8066"/><circle cx="19.5" cy="38.5" r="2.5" fill="#fff"/><circle cx="79.5" cy="33.5" r="1.5" fill="#fff"/><g><path fill="#77cbd2" d="M28.399,67.3c-0.016,0-0.063,0-0.094-0.054c-0.031-0.054-0.007-0.094,0-0.108l21.618-37.442 c0.007-0.013,0.031-0.054,0.093-0.054s0.086,0.041,0.094,0.054l21.617,37.442c0.008,0.013,0.031,0.054,0,0.108 C71.696,67.3,71.649,67.3,71.634,67.3H28.399z"/><path fill="#472b29" d="M58,64.75h-7.938c-0.138,0-0.25-0.112-0.25-0.25s0.112-0.25,0.25-0.25H58 c0.138,0,0.25,0.112,0.25,0.25S58.138,64.75,58,64.75z"/><path fill="#472b29" d="M47.625,64.75H33.269c-0.122,0-0.226-0.061-0.287-0.166c-0.06-0.109-0.059-0.228,0-0.33 l2.386-4.203c0.068-0.121,0.22-0.162,0.341-0.094c0.12,0.068,0.162,0.221,0.094,0.341l-2.244,3.953h14.066 c0.138,0,0.25,0.112,0.25,0.25S47.763,64.75,47.625,64.75z"/><path fill="#472b29" d="M36.569,58.691c-0.042,0-0.084-0.01-0.124-0.032c-0.12-0.068-0.162-0.221-0.094-0.341l1.795-3.162 c0.068-0.12,0.221-0.162,0.341-0.094c0.12,0.068,0.162,0.221,0.094,0.341l-1.795,3.162C36.74,58.646,36.656,58.691,36.569,58.691z"/><line x1="30.758" x2="27.5" y1="36.549" y2="33.5" fill="#f4989e"/><path fill="#472b29" d="M30.758,37.049c-0.123,0-0.245-0.045-0.342-0.135l-3.258-3.049 c-0.202-0.189-0.212-0.505-0.023-0.707c0.189-0.202,0.505-0.212,0.707-0.023l3.258,3.049c0.202,0.189,0.212,0.505,0.023,0.707 C31.025,36.996,30.892,37.049,30.758,37.049z"/><line x1="35.604" x2="32.084" y1="41.085" y2="37.79" fill="#f4989e"/><path fill="#472b29" d="M35.604,41.585c-0.123,0-0.245-0.045-0.342-0.135l-3.521-3.295 c-0.202-0.189-0.212-0.505-0.023-0.707c0.189-0.202,0.504-0.212,0.707-0.023l3.521,3.295c0.202,0.189,0.212,0.505,0.023,0.707 C35.871,41.531,35.737,41.585,35.604,41.585z"/><line x1="40.5" x2="37.281" y1="45.667" y2="42.654" fill="#f4989e"/><path fill="#472b29" d="M40.5,46.167c-0.123,0-0.245-0.045-0.342-0.135l-3.219-3.013c-0.202-0.189-0.212-0.505-0.023-0.707 c0.189-0.202,0.504-0.212,0.707-0.023l3.219,3.013c0.202,0.189,0.212,0.505,0.023,0.707C40.767,46.114,40.633,46.167,40.5,46.167z"/><polygon fill="#ee3e54" points="73.056,33.872 59.292,45.833 57.949,43.999 70.684,30.292"/><polygon fill="#f1bc19" points="75.383,37.332 60.5,47.667 59.157,45.832 73.011,33.752"/><polygon fill="#88ae45" points="77.829,40.853 61.667,49.542 60.324,47.707 75.457,37.273"/><polygon fill="#8889b9" points="80.156,44.254 62.792,51.417 61.449,49.582 77.784,40.674"/><polygon fill="#ee3e54" points="58.156,43.906 40.813,46 59.25,45.688"/><polygon fill="#f1bc19" points="60.094,47.625 41,46 59.25,45.688"/><polygon fill="#88ae45" points="61.281,49.5 41,46 60.094,47.625"/><polygon fill="#8889b9" points="62.625,51.563 41,46 61.281,49.5"/><path fill="#472b29" d="M50.017,30.934L70.608,66.6H29.425L50.017,30.934 M50.017,28.942c-0.272,0-0.544,0.135-0.7,0.404 L27.7,66.788C27.389,67.327,27.778,68,28.4,68h43.234c0.622,0,1.011-0.673,0.7-1.212L50.716,29.346 C50.561,29.077,50.289,28.942,50.017,28.942L50.017,28.942z"/><path fill="#472b29" d="M40.812,46.25c-0.123,0-0.23-0.091-0.247-0.216c-0.019-0.137,0.077-0.263,0.214-0.281l17.349-2.363 l3.403-3.66c0.095-0.101,0.253-0.106,0.354-0.013c0.101,0.094,0.106,0.252,0.013,0.353l-3.464,3.725 c-0.04,0.042-0.092,0.07-0.149,0.078l-17.438,2.375C40.835,46.249,40.823,46.25,40.812,46.25z"/><path fill="#472b29" d="M63.519,38.209c-0.061,0-0.122-0.022-0.17-0.067c-0.101-0.094-0.106-0.252-0.013-0.353l7.169-7.709 c0.095-0.101,0.252-0.106,0.354-0.013c0.101,0.094,0.106,0.252,0.013,0.353l-7.169,7.709 C63.652,38.182,63.585,38.209,63.519,38.209z"/><g><path fill="#472b29" d="M62.688,51.75c-0.02,0-0.04-0.002-0.06-0.007L41.065,46.43c-0.134-0.033-0.216-0.168-0.183-0.302 c0.033-0.134,0.167-0.218,0.302-0.183l21.483,5.293l3.894-1.605c0.129-0.052,0.274,0.008,0.326,0.136 c0.053,0.128-0.008,0.274-0.136,0.326l-3.97,1.636C62.752,51.744,62.72,51.75,62.688,51.75z"/></g><g><path fill="#472b29" d="M69.071,49.119c-0.098,0-0.191-0.058-0.231-0.155c-0.053-0.128,0.008-0.274,0.136-0.326l4.293-1.77 c0.128-0.052,0.274,0.009,0.326,0.136c0.053,0.128-0.008,0.274-0.136,0.326l-4.293,1.77 C69.135,49.113,69.103,49.119,69.071,49.119z"/></g><g><path fill="#472b29" d="M75.521,46.46c-0.098,0-0.191-0.058-0.231-0.155c-0.053-0.128,0.008-0.274,0.136-0.326l4.604-1.898 c0.129-0.052,0.274,0.009,0.326,0.136c0.053,0.128-0.008,0.274-0.136,0.326l-4.604,1.898C75.584,46.454,75.552,46.46,75.521,46.46 z"/></g></g></svg>