<svg xmlns="http://www.w3.org/2000/svg"  viewBox="0 0 64 64" width="64px" height="64px"><path fill="#f9e3ae" d="M48.523,23.147c0.081-9.665-7.688-17.565-17.352-17.646c-9.665-0.081-17.565,7.688-17.646,17.352 C13.472,28.962,17.224,34.569,22,39.15V41c0,2.209,1.791,4,4,4h10c2.209,0,4-1.791,4-4v-1.909 C44.745,34.629,48.472,29.162,48.523,23.147z"/><path fill="#faefde" d="M17.181,15.054c1.034,1.034,2.759,0.983,3.672-0.16C23.232,11.913,26.889,10,31,10 c4.074,0,7.703,1.878,10.084,4.812c0.917,1.13,2.63,1.174,3.659,0.145l0,0c0.914-0.914,0.973-2.372,0.153-3.371 C41.598,7.569,36.604,5,31,5c-5.653,0-10.685,2.615-13.982,6.694C16.209,12.695,16.27,14.143,17.181,15.054L17.181,15.054z"/><path fill="#acb7d0" d="M29 57H33V60H29z" transform="rotate(-180 31 58.5)"/><path fill="#c2cde7" d="M23,45h16v6c0,3.314-2.686,6-6,6h-4c-3.314,0-6-2.686-6-6V45z"/><path fill="#72caaf" d="M32,38.083c0,0-7.337,1.411-8.259-6.117c-0.777-6.345,5.215-15.614,5.215-15.614 s7.9,6.927,9.053,13.215C39.333,36.792,32,38.083,32,38.083z"/><path fill="#5dbc9d" d="M32,38.083c-0.22,1.339-7.337,1.411-8.259-6.117C22.964,25.621,28.723,14.781,29,17 C30,25,33,32,32,38.083z"/><path fill="#8d6c9f" d="M8 23c0-.553-.448-1-1-1H1c-.552 0-1 .447-1 1s.448 1 1 1h6C7.552 24 8 23.553 8 23zM61 22h-6c-.552 0-1 .447-1 1s.448 1 1 1h6c.552 0 1-.447 1-1S61.552 22 61 22zM8.373 31.063l-3.709 1.499c-.512.207-.759.789-.552 1.302.158.389.532.625.928.625.125 0 .251-.023.374-.073l3.709-1.499c.512-.207.759-.789.552-1.302C9.468 31.104 8.886 30.856 8.373 31.063zM53.253 15.01c.125 0 .251-.023.374-.073l3.709-1.499c.512-.207.759-.789.552-1.302-.208-.511-.789-.759-1.302-.552l-3.709 1.499c-.512.207-.759.789-.552 1.302C52.482 14.773 52.857 15.01 53.253 15.01zM9.123 13.083l-3.709-1.499c-.513-.207-1.095.041-1.302.552-.207.513.041 1.095.552 1.302l3.709 1.499c.123.05.25.073.374.073.396 0 .771-.236.928-.625C9.882 13.872 9.634 13.29 9.123 13.083zM57.336 32.562l-3.709-1.499c-.511-.207-1.095.041-1.302.552-.207.513.041 1.095.552 1.302l3.709 1.499c.123.05.25.073.374.073.396 0 .771-.236.928-.625C58.095 33.352 57.848 32.77 57.336 32.562zM31 4c-10.477 0-19 8.523-19 19 0 4.973 2.782 8.688 5.472 12.282C19.622 38.155 21.645 40.888 22 44h0v7c0 3.519 2.613 6.432 6 6.92V59c0 1.103.897 2 2 2h2c1.103 0 2-.897 2-2v-1.08c3.387-.488 6-3.401 6-6.92v-6.101c.016-3.496 2.224-6.47 4.565-9.617C47.237 31.688 50 27.973 50 23 50 12.523 41.477 4 31 4zM38 47.117l-14 1.75V46h14V47.117zM32 59h-2v-1h2V59zM33 56h-4c-2.757 0-5-2.243-5-5v-.117l14-1.75V51c0 .041-.011.078-.012.119l-10.154 1.269c-.548.068-.937.568-.868 1.116.063.506.494.876.991.876.042 0 .083-.003.125-.008l9.385-1.173C36.651 54.851 34.964 56 33 56zM42.96 34.088c-2.243 3.016-4.555 6.125-4.915 9.85L31.92 43.94c.384-1.617.659-3.294.817-5.005 1.11-.3 3.602-1.19 5.147-3.413 1.172-1.686 1.545-3.75 1.107-6.136-1.202-6.555-8.908-13.352-9.377-13.786-.469-.434-1.161-.334-1.499.209-.338.543-6.18 9.649-5.368 16.277.31 2.526 1.316 4.426 2.992 5.646 1.655 1.205 3.589 1.454 4.905 1.454.021 0 .036-.001.057-.002-.171 1.629-.449 3.224-.838 4.756l-5.839.003c-.362-3.73-2.692-6.843-4.952-9.861C16.579 30.752 14 27.308 14 23c0-9.374 7.626-17 17-17s17 7.626 17 17C48 27.311 45.438 30.756 42.96 34.088zM32.77 32.053c-.047-.552-.527-.972-1.081-.912-.55.046-.958.53-.912 1.08.14 1.658.163 3.322.082 4.966-1.004.028-2.62-.109-3.941-1.071-1.21-.881-1.945-2.318-2.184-4.271-.578-4.723 2.965-11.39 4.44-13.921 2.042 1.972 6.997 7.162 7.852 11.824.336 1.836.076 3.391-.774 4.62-.928 1.343-2.384 2.066-3.371 2.424C32.938 35.22 32.903 33.633 32.77 32.053z"/><path fill="#8d6c9f" d="M31.468 24.93c-.155-.53-.709-.838-1.24-.681-.53.154-.835.709-.681 1.239.235.807.442 1.646.618 2.493.098.473.514.798.979.798.067 0 .135-.007.204-.021.541-.112.889-.641.777-1.182C31.937 26.678 31.717 25.787 31.468 24.93zM38.234 11.011c-.475-.286-1.087-.134-1.373.34-.286.473-.134 1.087.339 1.373.824.497 1.592 1.1 2.284 1.791.195.195.451.293.707.293s.512-.098.708-.293c.39-.391.39-1.024 0-1.414C40.093 12.295 39.196 11.592 38.234 11.011zM33.546 9.232c-3.577-.656-7.211.074-10.232 2.063-.461.304-.589.924-.286 1.385.192.292.511.45.836.45.188 0 .379-.054.549-.165 2.589-1.703 5.704-2.329 8.771-1.767.543.104 1.065-.26 1.165-.803C34.449 9.854 34.089 9.332 33.546 9.232z"/></svg>