<?xml version="1.0" encoding="utf-8"?>
<!-- Generator: Adobe Illustrator 19.2.1, SVG Export Plug-In . SVG Version: 6.00 Build 0)  -->
<svg xmlns="http://www.w3.org/2000/svg" xmlns:xlink="http://www.w3.org/1999/xlink" version="1.1" id="Layer" x="0px" y="0px" width="512" height="512" viewBox="0 0 64 64" enable-background="new 0 0 64 64" xml:space="preserve">
<path fill="#CCE4FF" d="M37,28c-2.76,0-5,2.24-5,5c0-2.76-2.24-5-5-5s-5,2.24-5,5c0,6.04,10,11,10,11s10-5,10-11  C42,30.24,39.76,28,37,28z"/>
<path fill="#007AFF" d="M51,25.071V11H39v5.345l-8-5.818L13.441,23.296l0,0l-1.817,1.322L11,25.071v0L6.206,28.56l2.354,3.234  L11,30.018V53h40V30.019v0l2.44,1.776l2.354-3.234L51,25.071L51,25.071z M43,15h4v7.161l-4-2.91V15z M47,49H15V27.108l16-11.636  l16,11.636V49z"/>
<path fill="#007AFF" d="M26,26c-3.86,0-7,3.141-7,7c0,7.078,9.974,12.228,11.112,12.792l0.892,0.442l0.891-0.445  C33.031,45.221,43,40.033,43,33c0-3.859-3.141-7-7-7c-1.957,0-3.729,0.807-5,2.105C29.729,26.807,27.957,26,26,26z M36,30  c1.654,0,3,1.346,3,3c0,3.451-5.23,7.146-8.003,8.729C28.226,40.156,23,36.478,23,33c0-1.654,1.346-3,3-3s3,1.346,3,3v2h4v-2  C33,31.346,34.346,30,36,30z"/>
</svg>
