<?xml version="1.0" encoding="iso-8859-1"?>
<!-- Generator: Adobe Illustrator 21.0.0, SVG Export Plug-In . SVG Version: 6.00 Build 0)  -->
<svg version="1.1" id="Capa_1" xmlns="http://www.w3.org/2000/svg" xmlns:xlink="http://www.w3.org/1999/xlink" x="0px" y="0px"
	 viewBox="0 0 512.002 512.002" style="enable-background:new 0 0 512.002 512.002;" xml:space="preserve">
<g>
	<g transform="translate(1 1)">
		<path style="fill:#A4C2F7;" d="M502.424,155.811v0.085c-2.42,49.485-15.736,97.824-38.997,141.568
			c-36.437,76.8-130.219,153.685-208.384,204.971c-4.181-2.731-8.448-5.632-12.8-8.533
			c75.264-51.029,161.109-123.733,195.584-196.437c23.261-43.744,36.577-92.083,38.997-141.568v-0.085
			c0.185-4.208,0.157-8.424-0.085-12.629c-0.085-3.072-0.256-6.059-0.427-9.045c0.012-0.513-0.017-1.027-0.085-1.536v-0.085
			c-0.085-0.768-0.171-1.621-0.256-2.389c-0.341-3.413-0.683-6.827-1.195-10.155c-0.512-3.328-1.109-6.656-1.707-9.899
			c-0.427-2.048-0.853-4.096-1.365-6.144c-0.597-2.389-1.195-4.779-1.877-7.168c-0.171-0.683-0.427-1.28-0.597-1.963
			c-0.768-2.475-1.536-4.864-2.389-7.253c-0.683-1.963-1.451-3.925-2.304-5.888c-0.807-2.092-1.718-4.143-2.731-6.144
			c-0.318-0.819-0.689-1.618-1.109-2.389c-0.273-0.688-0.616-1.345-1.024-1.963c-0.347-0.821-0.746-1.619-1.195-2.389
			c-0.218-0.285-0.391-0.601-0.512-0.939c-1.849-3.346-3.872-6.593-6.059-9.728c-0.768-1.109-1.451-2.133-2.304-3.243
			c-0.939-1.365-1.963-2.645-3.072-4.011c-2.72-3.373-5.626-6.592-8.704-9.643c-1.451-1.451-2.901-2.731-4.437-4.096
			c-3.038-2.606-6.23-5.028-9.557-7.253h-0.085c-0.829-0.647-1.714-1.219-2.645-1.707c-1.73-1.18-3.525-2.263-5.376-3.243
			c-2.475-1.28-4.949-2.56-7.424-3.669c-14.467-6.452-29.942-10.35-45.739-11.52c24.371-2.265,48.919,1.699,71.339,11.52
			c2.475,1.109,4.949,2.389,7.424,3.669c1.851,0.98,3.646,2.062,5.376,3.243c0.931,0.488,1.817,1.059,2.645,1.707h0.085
			c3.327,2.225,6.519,4.647,9.557,7.253c1.536,1.365,2.987,2.645,4.437,4.096c3.078,3.05,5.984,6.269,8.704,9.643
			c1.109,1.365,2.133,2.645,3.072,4.011c0.853,1.109,1.536,2.133,2.304,3.243c2.187,3.135,4.209,6.382,6.059,9.728
			c0.121,0.337,0.294,0.654,0.512,0.939c0.449,0.77,0.848,1.568,1.195,2.389c0.408,0.617,0.751,1.275,1.024,1.963
			c0.421,0.772,0.791,1.57,1.109,2.389c1.013,2.001,1.924,4.052,2.731,6.144c0.853,1.963,1.621,3.925,2.304,5.888
			c0.853,2.389,1.621,4.779,2.389,7.253c0.171,0.683,0.427,1.28,0.597,1.963c0.683,2.389,1.28,4.779,1.877,7.168
			c0.512,2.048,0.939,4.096,1.365,6.144c0.597,3.243,1.195,6.485,1.707,9.899c0.512,3.413,0.853,6.741,1.195,10.155
			c0.085,0.768,0.171,1.621,0.256,2.389v0.085c0.069,0.509,0.097,1.023,0.085,1.536c0.171,2.987,0.341,5.973,0.427,9.045
			C502.58,147.387,502.609,151.602,502.424,155.811z"/>
		<path style="fill:#E3E7F2;" d="M476.824,155.811v0.085c-2.42,49.485-15.736,97.824-38.997,141.568
			c-34.475,72.704-120.32,145.408-195.584,196.437C166.978,442.872,81.133,370.168,46.658,297.464
			C12.952,231.075,1.005,164.771,10.989,112.376c0.597-3.328,1.28-6.485,2.048-9.728c0.768-3.072,1.621-6.059,2.56-8.96
			c0.045-0.202,0.102-0.402,0.171-0.597c0.768-2.389,1.536-4.693,2.389-6.912c0.427-1.109,0.768-2.133,1.28-3.157
			c1.86-4.896,4.056-9.657,6.571-14.251c1.365-2.475,2.731-4.864,4.267-7.168c0.196-0.388,0.425-0.759,0.683-1.109
			c1.28-1.963,2.56-3.84,4.011-5.717c0.227-0.389,0.484-0.76,0.768-1.109c1.536-1.963,3.072-3.925,4.693-5.803
			c0.149-0.217,0.321-0.417,0.512-0.597c1.792-2.133,3.755-4.096,5.717-6.059c2.133-2.048,4.267-4.011,6.571-5.888
			c1.69-1.431,3.456-2.77,5.291-4.011c1.963-1.451,4.011-2.816,6.144-4.096c0.094-0.09,0.213-0.149,0.341-0.171
			c2.219-1.365,4.523-2.645,6.912-3.84c1.665-0.882,3.374-1.68,5.12-2.389c1.011-0.569,2.067-1.055,3.157-1.451
			c1.792-0.768,3.584-1.451,5.461-2.133c1.621-0.597,3.157-1.109,4.779-1.536c0.692-0.307,1.405-0.564,2.133-0.768h0.085
			c0.939-0.341,1.963-0.597,2.901-0.853l6.144-1.536c0.171,0,0.341-0.085,0.512-0.085c3.379-0.777,6.798-1.375,10.24-1.792
			c2.731-0.427,5.547-0.768,8.363-0.939c45.581-4.611,90.593,13.019,120.917,47.36c5.069,5.938,9.529,12.37,13.312,19.2
			c20.565-41.301,63.744-63.147,107.52-66.56c15.797,1.17,31.272,5.068,45.739,11.52c2.475,1.109,4.949,2.389,7.424,3.669
			c1.851,0.98,3.646,2.062,5.376,3.243c0.931,0.488,1.817,1.059,2.645,1.707h0.085c3.328,2.225,6.519,4.647,9.557,7.253
			c1.536,1.365,2.987,2.645,4.437,4.096c3.078,3.05,5.984,6.269,8.704,9.643c1.109,1.365,2.133,2.645,3.072,4.011
			c0.853,1.109,1.536,2.133,2.304,3.243c2.187,3.135,4.209,6.382,6.059,9.728c0.121,0.337,0.294,0.654,0.512,0.939
			c0.449,0.77,0.848,1.568,1.195,2.389c0.408,0.617,0.751,1.275,1.024,1.963c0.421,0.772,0.791,1.57,1.109,2.389
			c1.013,2.001,1.924,4.052,2.731,6.144c0.853,1.963,1.621,3.925,2.304,5.888c0.853,2.389,1.621,4.779,2.389,7.253
			c0.171,0.683,0.427,1.28,0.597,1.963c0.683,2.389,1.28,4.779,1.877,7.168c0.512,2.048,0.939,4.096,1.365,6.144
			c0.597,3.243,1.195,6.485,1.707,9.899c0.512,3.413,0.853,6.741,1.195,10.155c0.085,0.768,0.171,1.621,0.256,2.389v0.085
			c0.069,0.509,0.097,1.023,0.085,1.536c0.171,2.987,0.341,5.973,0.427,9.045C476.98,147.387,477.009,151.602,476.824,155.811z"/>
		<g>
			<g>
				<path style="fill:#7FABFA;" d="M242.242,128.504l-25.6,25.6c-1.365,1.28-12.459,12.715-13.909,13.909l-29.867,29.781
					c-8.619,8.619-1.536,17.152,7.339,21.931c5.915,3.032,12.603,4.221,19.2,3.413c-1.877,0.939-3.755,1.877-5.632,2.731
					c-12,6.756-26.436,7.637-39.168,2.389c-8.875-4.779-15.957-13.312-7.339-21.931l29.867-29.781
					c1.451-1.195,12.544-12.629,13.909-13.909l25.6-25.6c-2.005-2.057-4.206-3.915-6.571-5.547
					c-9.988-7.466-22.091-11.56-34.56-11.691L76.61,20.984c0.171-0.085,0.256-0.085,0.427-0.171
					c1.011-0.569,2.067-1.055,3.157-1.451c1.792-0.768,3.584-1.451,5.461-2.133c1.621-0.597,3.157-1.109,4.779-1.536
					c0.692-0.307,1.405-0.564,2.133-0.768h0.085c0.939-0.341,1.963-0.597,2.901-0.853l6.144-1.536c0.171,0,0.341-0.085,0.512-0.085
					l98.901,98.816c12.469,0.131,24.572,4.225,34.56,11.691C238.036,124.589,240.237,126.447,242.242,128.504z"/>
				<path style="fill:#7FABFA;" d="M406.509,310.435c-3.977,3.931-9.342,6.138-14.933,6.144c-2.626-0.019-5.228-0.51-7.68-1.451
					c2.885-4.501,3.896-9.953,2.816-15.189c-0.834-4.102-2.851-7.869-5.803-10.837L272.536,180.984
					c4.096-3.499,8.875-8.107,17.493-16.64l116.48,116.224c2.951,2.968,4.968,6.736,5.803,10.837
					C413.711,298.321,411.529,305.476,406.509,310.435z"/>
			</g>
			<g>
				<path style="fill:#E3E7F2;" d="M383.896,315.128c-2.72-1.039-5.191-2.638-7.253-4.693c2.229,2.17,3.924,4.828,4.949,7.765
					c2.298,6.469,1.314,13.651-2.637,19.264c-3.952,5.614-10.381,8.962-17.246,8.981c-2.626-0.019-5.228-0.51-7.68-1.451
					c-2.724-1.071-5.194-2.699-7.253-4.779c6.053,6.029,7.868,15.116,4.595,23.007c-3.273,7.892-10.985,13.027-19.529,13.003
					c-2.603,0.023-5.184-0.47-7.595-1.451c-2.752-1.026-5.254-2.625-7.339-4.693c2.229,2.17,3.924,4.828,4.949,7.765
					c2.799,7.675,0.865,16.277-4.949,22.016c-3.967,3.957-9.331,6.194-14.933,6.229c-2.636-0.006-5.245-0.528-7.68-1.536
					c-2.72-1.039-5.191-2.638-7.253-4.693l-2.987-2.987l-29.867-29.781l-29.867-29.781v-0.085l-29.867-29.781l-29.867-29.867
					l-32.853,32.853c-0.421,0.405-0.82,0.832-1.195,1.28c-1.909,2.179-3.334,4.739-4.181,7.509
					c-4.089-2.666-7.994-5.602-11.691-8.789c-2.987-2.475-6.315-5.461-9.813-8.96c0,0-23.893-23.893-11.947-71.595
					c6.059-23.979-8.448-51.797-29.952-77.568l-49.579-49.579l-0.341-0.085c0.768-3.072,1.621-6.059,2.56-8.96
					c0.045-0.202,0.102-0.402,0.171-0.597c0.768-2.389,1.536-4.693,2.389-6.912c0.427-1.109,0.768-2.133,1.28-3.157
					c1.86-4.896,4.056-9.657,6.571-14.251c1.365-2.475,2.731-4.864,4.267-7.168c0.196-0.388,0.425-0.759,0.683-1.109
					c1.28-1.963,2.56-3.84,4.011-5.717c0.227-0.389,0.484-0.76,0.768-1.109c1.536-1.963,3.072-3.925,4.693-5.803
					c0.149-0.217,0.321-0.417,0.512-0.597c1.792-2.133,3.755-4.096,5.717-6.059c2.133-2.048,4.267-4.011,6.571-5.888
					c1.69-1.431,3.456-2.77,5.291-4.011c1.963-1.451,4.011-2.816,6.144-4.096c0.094-0.09,0.213-0.149,0.341-0.171
					c2.219-1.365,4.523-2.645,6.912-3.84c1.451-0.768,3.157-1.536,4.693-2.219l98.901,98.816
					c12.469,0.131,24.572,4.225,34.56,11.691c2.365,1.632,4.565,3.489,6.571,5.547l-25.6,25.6
					c-1.365,1.28-12.459,12.715-13.909,13.909l-29.867,29.781c-8.619,8.619-1.536,17.152,7.339,21.931
					c12.732,5.247,27.168,4.367,39.168-2.389c1.877-0.853,3.755-1.792,5.632-2.731c6.927-0.835,13.672-2.795,19.968-5.803
					c14-6.707,27.125-15.104,39.083-25.003c6.229-5.035,9.728-7.595,14.08-11.349l108.373,108.117
					c2.951,2.968,4.968,6.736,5.803,10.837C387.792,305.175,386.781,310.626,383.896,315.128z"/>
				<path style="fill:#E3E7F2;" d="M272.536,180.984c-4.352,3.755-7.851,6.315-14.08,11.349
					c-11.958,9.899-25.083,18.296-39.083,25.003c-6.296,3.008-13.041,4.968-19.968,5.803c11.845-6.323,23.048-13.782,33.451-22.272
					c11.268-8.456,21.827-17.817,31.573-27.989L272.536,180.984z"/>
				<path style="fill:#E3E7F2;" d="M324.248,374.776c-0.673,1.115-1.475,2.146-2.389,3.072c-1.026-2.937-2.72-5.595-4.949-7.765
					C318.994,372.15,321.496,373.75,324.248,374.776z"/>
				<path style="fill:#E3E7F2;" d="M354.029,344.995c-0.615,1.104-1.392,2.111-2.304,2.987c-1.058-2.921-2.748-5.573-4.949-7.765
					C348.835,342.296,351.305,343.923,354.029,344.995z"/>
				<path style="fill:#E3E7F2;" d="M383.896,315.128c-0.614,1.131-1.39,2.166-2.304,3.072c-1.026-2.937-2.72-5.595-4.949-7.765
					C378.705,312.49,381.176,314.088,383.896,315.128z"/>
			</g>
		</g>
		<path style="fill:#D4E1F4;" d="M485.272,160.248l-53.845,53.76c2.027,25.24-6.044,50.253-22.443,69.547
			c-0.726-1.073-1.555-2.074-2.475-2.987l-1.024-1.024l-115.456-115.2c-8.619,8.533-13.483,13.141-17.493,16.64
			c-4.352,3.755-7.851,6.315-14.08,11.349c-11.958,9.899-25.083,18.296-39.083,25.003c-12,6.756-26.436,7.637-39.168,2.389
			c-8.789-4.693-15.787-13.056-7.68-21.589l13.141-13.056c1.109-0.939,7.595-7.595,11.349-11.349
			c0.683-0.597,1.195-1.195,1.621-1.621l0.939-0.939l4.864-4.779l1.877-1.877l18.859-18.944l17.067-17.067
			c2.048-2.048,4.181-3.925,6.315-5.803c6.156-5.104,12.956-9.379,20.224-12.715c23.616-10.898,50.708-11.455,74.752-1.536v-0.085
			c22.443-7.936,48.043-33.536,48.043-33.536l0.768-0.683l31.573-31.573l17.067-17.067l0.341-0.597
			c1.851,0.98,3.646,2.062,5.376,3.243c0.931,0.488,1.817,1.059,2.645,1.707h0.085c3.327,2.225,6.519,4.647,9.557,7.253
			c1.536,1.365,2.987,2.645,4.437,4.096c3.078,3.05,5.984,6.269,8.704,9.643c1.109,1.365,2.133,2.645,3.072,4.011
			c0.853,1.109,1.536,2.133,2.304,3.243c2.187,3.135,4.209,6.382,6.059,9.728c0.121,0.337,0.294,0.654,0.512,0.939
			c0.449,0.77,0.848,1.568,1.195,2.389c0.408,0.617,0.751,1.275,1.024,1.963c0.421,0.772,0.791,1.57,1.109,2.389
			c1.013,2.001,1.924,4.052,2.731,6.144c0.853,1.963,1.621,3.925,2.304,5.888c0.853,2.389,1.621,4.779,2.389,7.253
			c0.171,0.683,0.427,1.28,0.597,1.963c0.683,2.389,1.28,4.779,1.877,7.168c0.512,2.048,0.939,4.096,1.365,6.144
			c0.597,3.243,1.195,6.485,1.707,9.899c0.512,3.413,0.853,6.741,1.195,10.155c0.099,0.821,0.156,1.647,0.171,2.475
			c0.085,0.512,0.085,1.024,0.171,1.536c0.171,2.987,0.341,5.973,0.427,9.045L485.272,160.248z"/>
		<path style="fill:#E3E7F2;" d="M414.36,230.989v0.085c1.354,16.656-1.707,33.374-8.875,48.469l-115.456-115.2
			c-8.619,8.533-13.483,13.141-17.493,16.64c-4.352,3.755-7.851,6.315-14.08,11.349c-11.958,9.899-25.083,18.296-39.083,25.003
			c-12,6.756-26.436,7.637-39.168,2.389c-8.789-4.693-15.787-13.056-7.68-21.589l13.141-13.056
			c1.109-0.939,7.595-7.595,11.349-11.349c0.683-0.597,1.195-1.195,1.621-1.621l0.939-0.939l4.864-4.779l1.877-1.877l18.859-18.944
			c2.048-2.048,4.181-3.925,6.315-5.803c6.156-5.104,12.956-9.379,20.224-12.715c23.616-10.898,50.708-11.455,74.752-1.536v-0.085
			c22.443-7.936,48.043-33.536,48.043-33.536l0.768-0.683l17.067-17.067l31.573-31.573l0.341-0.597c0.085,0,0.085,0.085,0.171,0.085
			c1.794,0.951,3.533,2.006,5.205,3.157c0.931,0.488,1.817,1.059,2.645,1.707h0.085c3.328,2.225,6.519,4.647,9.557,7.253
			c1.536,1.365,2.987,2.645,4.437,4.096c3.078,3.05,5.984,6.269,8.704,9.643c1.109,1.365,2.133,2.645,3.072,4.011
			c0.853,1.109,1.536,2.133,2.304,3.243c2.187,3.135,4.209,6.382,6.059,9.728c0.121,0.337,0.294,0.654,0.512,0.939
			c0.449,0.77,0.848,1.568,1.195,2.389c0.408,0.617,0.751,1.275,1.024,1.963c0.421,0.772,0.791,1.57,1.109,2.389
			c1.013,2.001,1.924,4.052,2.731,6.144c0.853,1.963,1.621,3.925,2.304,5.888c0.853,2.389,1.621,4.779,2.389,7.253
			c0.171,0.683,0.427,1.28,0.597,1.963c0.683,2.389,1.28,4.779,1.877,7.168c0.512,2.048,0.939,4.096,1.365,6.144
			c0.597,3.243,1.195,6.485,1.707,9.899c0.512,3.413,0.853,6.741,1.195,10.155c0.099,0.821,0.156,1.647,0.171,2.475
			c0.085,0.512,0.085,1.024,0.171,1.536c0.171,2.987,0.341,5.973,0.427,9.045l-53.845,53.76L414.36,230.989z"/>
		<g>
			<path style="fill:#D4E1F4;" d="M194.456,307.448l-32.853,32.768c-6.838,6.817-17.424,8.139-25.728,3.213
				c-8.304-4.926-12.219-14.85-9.514-24.119v-0.085c1.055-3.322,2.899-6.338,5.376-8.789l32.853-32.853L194.456,307.448z"/>
			<path style="fill:#D4E1F4;" d="M224.322,337.229v0.085l-35.84,35.755c-0.512,0.512-0.939,1.024-1.451,1.536l-1.536,1.451
				c-8.271,8.106-21.528,8.039-29.717-0.15c-8.189-8.189-8.256-21.445-0.15-29.717l5.973-5.973l32.853-32.768L224.322,337.229z"/>
			<path style="fill:#D4E1F4;" d="M284.056,396.877l-26.88,26.88c-8.221,8.178-21.497,8.198-29.743,0.046
				s-8.377-21.428-0.294-29.742l27.051-26.965L284.056,396.877z"/>
			<path style="fill:#D4E1F4;" d="M254.189,367.096l-27.051,26.965l-8.789,8.789c-7.939,7.986-20.749,8.335-29.112,0.793
				c-8.362-7.542-9.333-20.32-2.206-29.039c0.512-0.512,0.939-1.024,1.451-1.536l35.84-35.755L254.189,367.096z"/>
		</g>
		<path style="fill:#FFFFFF;" d="M72.258,297.464c-33.707-66.389-45.653-132.693-35.669-185.088c0.597-3.328,1.28-6.485,2.048-9.728
			c0.768-3.072,1.621-6.059,2.56-8.96c0.045-0.202,0.102-0.402,0.171-0.597c0.768-2.389,1.536-4.693,2.389-6.912
			c0.427-1.109,0.768-2.133,1.28-3.157c1.86-4.896,4.056-9.657,6.571-14.251c1.365-2.475,2.731-4.864,4.267-7.168
			c0.196-0.388,0.425-0.759,0.683-1.109c1.28-1.963,2.56-3.84,4.011-5.717c0.227-0.389,0.484-0.76,0.768-1.109
			c1.536-1.963,3.072-3.925,4.693-5.803c0.149-0.217,0.321-0.417,0.512-0.597c1.792-2.133,3.755-4.096,5.717-6.059
			c2.133-2.048,4.267-4.011,6.571-5.888c1.69-1.431,3.456-2.77,5.291-4.011c1.963-1.451,4.011-2.816,6.144-4.096
			c0.094-0.09,0.213-0.149,0.341-0.171c2.219-1.365,4.523-2.645,6.912-3.84c1.451-0.768,3.157-1.536,4.693-2.219
			c0.171-0.085,0.256-0.085,0.427-0.171c1.011-0.569,2.067-1.055,3.157-1.451c1.792-0.768,3.584-1.451,5.461-2.133
			c1.621-0.597,3.157-1.109,4.779-1.536c0.692-0.307,1.405-0.564,2.133-0.768h0.085c0.939-0.341,1.963-0.597,2.901-0.853
			l6.144-1.536c0.171,0,0.341-0.085,0.512-0.085c3.379-0.777,6.798-1.375,10.24-1.792c2.381-0.375,4.838-0.631,7.296-0.853
			c-8.162-0.694-16.367-0.722-24.533-0.085c-2.816,0.171-5.632,0.512-8.363,0.939c-3.442,0.417-6.861,1.015-10.24,1.792
			c-0.171,0-0.341,0.085-0.512,0.085l-6.144,1.536c-0.939,0.256-1.963,0.512-2.901,0.853h-0.085
			c-0.729,0.204-1.442,0.461-2.133,0.768c-1.621,0.427-3.157,0.939-4.779,1.536c-1.877,0.683-3.669,1.365-5.461,2.133
			c-1.09,0.396-2.146,0.881-3.157,1.451c-0.171,0.085-0.256,0.085-0.427,0.171c-1.536,0.683-3.243,1.451-4.693,2.219
			c-2.389,1.195-4.693,2.475-6.912,3.84c-0.128,0.021-0.247,0.081-0.341,0.171c-2.133,1.28-4.181,2.645-6.144,4.096
			c-1.834,1.241-3.601,2.579-5.291,4.011c-2.304,1.877-4.437,3.84-6.571,5.888c-1.963,1.963-3.925,3.925-5.717,6.059
			c-0.191,0.18-0.363,0.381-0.512,0.597c-1.621,1.877-3.157,3.84-4.693,5.803c-0.284,0.349-0.541,0.72-0.768,1.109
			c-1.451,1.877-2.731,3.755-4.011,5.717c-0.258,0.35-0.486,0.721-0.683,1.109c-1.536,2.304-2.901,4.693-4.267,7.168
			c-2.515,4.594-4.71,9.355-6.571,14.251c-0.512,1.024-0.853,2.048-1.28,3.157c-0.853,2.219-1.621,4.523-2.389,6.912
			c-0.068,0.196-0.125,0.395-0.171,0.597c-0.939,2.901-1.792,5.888-2.56,8.96c-0.768,3.243-1.451,6.4-2.048,9.728
			c-9.984,52.395,1.963,118.699,35.669,185.088c34.475,72.704,120.32,145.408,195.584,196.437c4.352,2.901,8.619,5.803,12.8,8.533
			c4.215-2.765,8.533-5.641,12.8-8.533C192.561,442.863,106.733,370.168,72.258,297.464z"/>
	</g>
	<g>
		<path style="fill:#FFFFFF;" d="M251.366,510.577c-31.234-20.418-61.291-42.583-90.027-66.389
			c-23.985-19.829-46.544-41.324-67.507-64.324c-21.474-23.136-39.612-49.158-53.888-77.312l15.411-7.33
			c13.583,26.67,30.815,51.318,51.2,73.233c20.401,22.395,42.358,43.323,65.707,62.626c28.226,23.388,57.753,45.16,88.439,65.212
			L251.366,510.577z"/>
		<g>
			<path style="fill:#428DFF;" d="M199.082,455.648c-1.103,0.177-2.163,0.563-3.123,1.135c-0.969,0.549-1.824,1.279-2.517,2.15
				c-2.083,2.767-2.297,6.515-0.542,9.502s5.133,4.624,8.564,4.152l1.587-0.401c0.544-0.187,1.06-0.445,1.536-0.768
				c0.485-0.243,0.93-0.556,1.323-0.93c0.416-0.393,0.802-0.818,1.152-1.271c1.326-1.832,1.914-4.095,1.647-6.34
				C207.935,458.288,203.703,455.111,199.082,455.648z"/>
			<path style="fill:#428DFF;" d="M511.445,141.988c-1.852-42.863-15.437-79.753-41.037-104.875
				c-29.363-28.826-77.687-42.59-123.11-35.098c-37.691,5.512-71.161,27.044-91.802,59.059
				C231.998,27.906,195.635,6.148,155.298,1.12c-18.267-2.259-36.796-1.049-54.613,3.567c-0.506,0.087-1.003,0.222-1.485,0.401
				c-21.61,5.55-41.422,16.581-57.523,32.026C24.441,54.62,12.301,76.492,6.562,100.38c-0.085,0.196-0.119,0.41-0.188,0.614
				c-14.43,55.987-3.277,129.118,33.579,201.549l0.06,0.102v0.102c14.258,28.06,32.352,54,53.76,77.073
				c20.976,23.017,43.548,44.526,67.55,64.367l6.665,5.461c3.648,2.983,9.023,2.444,12.006-1.203
				c2.931-3.666,2.397-9.003-1.203-12.015l-6.537-5.35c-23.349-19.303-45.305-40.231-65.707-62.626
				c-20.385-21.915-37.617-46.563-51.2-73.233c0-0.068,0-0.154-0.06-0.23c-31.693-62.208-43.605-124.442-35.746-174.08
				l38.187,38.238c15.983,19.226,33.655,46.78,27.904,69.675c-12.979,51.823,13.082,78.566,14.191,79.676
				c5.693,5.766,11.843,11.062,18.389,15.838c-0.043,0.666-0.196,1.314-0.196,1.988c-0.023,7.864,3.106,15.409,8.687,20.949
				c4.355,4.332,9.955,7.193,16.017,8.183c-0.534,2.177-0.82,4.407-0.853,6.647c-0.024,7.864,3.105,15.41,8.687,20.949
				c5.572,5.566,13.133,8.68,21.009,8.653c1.143-0.046,2.282-0.154,3.413-0.324c1.147,15.375,13.997,27.24,29.414,27.162
				c3.438-0.03,6.844-0.654,10.069-1.843c2.495,10.421,10.426,18.681,20.737,21.598s21.394,0.035,28.978-7.535l21.171-21.129
				c8.962,6.699,20.937,7.764,30.94,2.752s16.319-15.243,16.317-26.432c0-0.077,0-0.154,0-0.239h0.239
				c7.858,0.009,15.398-3.105,20.96-8.657c5.562-5.552,8.689-13.087,8.693-20.945c0-0.077,0-0.154,0-0.239h0.239
				c7.858,0.009,15.398-3.105,20.96-8.657c5.562-5.552,8.689-13.087,8.693-20.945c0-0.077,0-0.154,0-0.239h0.239
				c9.837,0.031,19.045-4.834,24.563-12.978c5.518-8.144,6.623-18.499,2.949-27.624c14.556-19.279,21.97-43.012,20.975-67.149
				l53.385-53.248c-3.552,45.521-16.407,89.83-37.769,130.185c-40.26,84.736-150.34,164.582-200.636,197.973
				c-7.842-5.222-15.667-10.47-23.381-15.881c-2.492-1.811-5.767-2.139-8.569-0.857c-2.801,1.282-4.694,3.975-4.952,7.045
				s1.159,6.041,3.707,7.772c9.387,6.588,18.876,13.033,28.467,19.337v-0.051c2.809,1.904,6.489,1.924,9.318,0.051
				c49.118-32.171,168.047-116.762,211.354-207.855c25.912-48.338,39.503-102.321,39.569-157.167
				C511.814,144.391,511.759,143.163,511.445,141.988z M153.164,18.05c40.045,5.164,75.389,28.714,95.573,63.684
				c1.547,2.712,4.504,4.306,7.62,4.105c3.101-0.116,5.895-1.907,7.296-4.676c16.87-33.664,49.155-56.933,86.426-62.293
				c26.261-4.296,53.206-0.841,77.534,9.941L387.31,69.088c-0.102,0.102-0.137,0.239-0.239,0.35
				c-0.102,0.111-0.367,0.196-0.521,0.35c-12.406,12.294-26.658,22.573-42.24,30.464c-34.493-12.774-73.196-5.921-101.205,17.92
				c-10.721-8.437-23.745-13.43-37.359-14.319l-85.658-85.598C131.061,16.786,142.175,16.717,153.164,18.05z M135.082,326.325
				c-0.006-3.328,1.319-6.52,3.678-8.866l26.829-26.786l17.792,17.766l-13.841,13.815L156.569,335.2
				c-4.926,4.898-12.883,4.898-17.809,0C136.398,332.852,135.073,329.656,135.082,326.325z M162.653,370.98
				c-2.355-2.351-3.678-5.543-3.678-8.87c0-3.328,1.323-6.519,3.678-8.87l32.802-32.742l17.792,17.758l-9.993,9.975l-22.793,22.758
				C175.534,375.884,167.577,375.88,162.653,370.98z M195.515,397.818c-2.354-2.35-3.677-5.54-3.677-8.866
				c0-3.326,1.323-6.516,3.677-8.866l29.807-29.773l17.792,17.758l-17.067,17.067L213.367,397.8
				C208.441,402.731,200.451,402.739,195.515,397.818z M252.151,418.682c-4.925,4.908-12.892,4.908-17.818,0
				c-2.356-2.349-3.681-5.539-3.681-8.866s1.324-6.517,3.681-8.866l20.855-20.821l10.684,10.667l7.108,7.1L252.151,418.682z
				 M401.484,305.376c-4.929,4.899-12.889,4.899-17.818,0l-86.613-86.477c-2.146-2.215-5.32-3.1-8.302-2.315
				c-2.982,0.785-5.309,3.118-6.086,6.103c-0.777,2.984,0.117,6.156,2.338,8.295l86.613,86.477c2.354,2.35,3.677,5.54,3.677,8.866
				c0,3.326-1.323,6.516-3.677,8.866c-4.929,4.899-12.889,4.899-17.818,0l-86.613-86.477c-2.146-2.215-5.32-3.1-8.302-2.315
				c-2.982,0.785-5.309,3.118-6.086,6.103c-0.777,2.984,0.117,6.156,2.338,8.295l86.613,86.477c2.354,2.35,3.677,5.54,3.677,8.866
				c0,3.326-1.323,6.516-3.677,8.866c-4.925,4.908-12.892,4.908-17.818,0l-86.613-86.468c-2.146-2.215-5.32-3.1-8.302-2.315
				c-2.982,0.785-5.309,3.118-6.086,6.103c-0.777,2.984,0.117,6.156,2.338,8.295l86.613,86.468c2.354,2.35,3.677,5.54,3.677,8.866
				s-1.323,6.516-3.677,8.866c-4.925,4.908-12.892,4.908-17.818,0l-2.961-2.953l-29.867-29.824l-29.867-29.798l-29.867-29.867
				l-29.867-29.815l-23.893-23.893c-3.353-3.229-8.675-3.176-11.962,0.121c-3.287,3.296-3.326,8.619-0.087,11.963l17.843,17.818
				l-26.812,26.769c-0.716,0.781-1.391,1.598-2.022,2.449c-4.468-3.53-8.722-7.323-12.74-11.358
				c-0.853-0.853-20.267-21.547-9.754-63.497c6.05-24.09-4.599-52.727-31.65-85.129c-0.102-0.119-0.239-0.162-0.341-0.273
				s-0.111-0.213-0.205-0.299l-46.037-45.969c5.229-19.594,15.442-37.501,29.645-51.977c13.081-12.6,29.03-21.831,46.473-26.897
				l83.772,83.712c-2.653,0.677-5.263,1.512-7.817,2.5c-4.374,1.763-6.49,6.737-4.727,11.11c1.763,4.373,6.737,6.49,11.11,4.727
				c15.968-6.454,34.123-4.331,48.171,5.632l-20.599,20.582c-6.886,7.023-10.846,10.982-11.631,11.665
				c-0.239,0.205-0.469,0.41-0.691,0.631l-29.867,29.815c-4.705,4.193-7.034,10.441-6.221,16.691
				c1.942,8.371,7.725,15.331,15.599,18.773c5.862,3.089,12.404,4.659,19.029,4.565c9.592-0.256,19.022-2.532,27.674-6.682
				c14.661-6.981,28.393-15.768,40.875-26.155l5.265-4.164c7.401-5.681,14.414-11.85,20.992-18.466l110.455,110.302
				c2.355,2.351,3.678,5.543,3.678,8.87S403.839,303.025,401.484,305.376z M423.381,166.283c-2.81-3.661-8.021-4.425-11.764-1.724
				c-3.742,2.701-4.659,7.888-2.069,11.708c19.598,28.687,19.493,66.484-0.265,95.061L297.088,159.294
				c-3.446-3.053-8.629-3.053-12.075,0c-7.918,8.35-16.462,16.084-25.557,23.134l-5.367,4.267
				c-11.378,9.46-23.876,17.485-37.214,23.893c-9.071,4.087-21.914,7.876-31.573,2.654c-4.668-2.509-6.656-5.12-6.827-6.246
				c0-0.316,0.375-1.126,1.391-2.142l29.653-29.594c1.28-1.143,4.13-3.951,12.663-12.629l27.076-27.059
				c33.003-32.837,86.336-32.837,119.339,0c2.146,2.215,5.32,3.1,8.302,2.315s5.309-3.118,6.086-6.103
				c0.777-2.984-0.117-6.156-2.338-8.295c-5.265-5.236-11.091-9.875-17.374-13.833c12.736-7.965,24.58-17.274,35.328-27.767
				c0.111-0.111,0.145-0.256,0.239-0.367c0.094-0.111,0.375-0.196,0.538-0.35l43.819-43.819c5.469,3.471,10.582,7.472,15.266,11.947
				c22.187,21.803,34.176,53.905,36.113,91.588l-56.644,56.508c-2.887-11.183-7.82-21.735-14.549-31.121V166.283z"/>
		</g>
	</g>
</g>
<g>
</g>
<g>
</g>
<g>
</g>
<g>
</g>
<g>
</g>
<g>
</g>
<g>
</g>
<g>
</g>
<g>
</g>
<g>
</g>
<g>
</g>
<g>
</g>
<g>
</g>
<g>
</g>
<g>
</g>
</svg>
