<svg id="Twotone" height="512" viewBox="0 0 64 64" width="512" xmlns="http://www.w3.org/2000/svg"><g id="Color_copy"><g><path d="m52 3h-40c-2.761 0-5 2.239-5 5v15c0 2.761 2.239 5 5 5h3v5l7-5h7l3 5 3-5h7l7 5v-5h3c2.761 0 5-2.239 5-5v-15c0-2.761-2.239-5-5-5z" fill="#a8dba8"/><g><path d="m40 57h-16v-8c0-2.209 1.791-4 4-4h8c2.209 0 4 1.791 4 4z" fill="#79bd9a"/><path d="m32 31c-4.418 0-8 3.582-8 8v2c0 2.209 1.791 4 4 4h8c2.209 0 4-1.791 4-4v-2c0-4.418-3.582-8-8-8z" fill="#79bd9a"/><path d="m34 48-2 1-2-1v-4h4z" fill="#fff"/><path d="m36 51v3h-2c-1.657 0-3 1.343-3 3h9v-6z" fill="#fff"/><path d="m31.526 45.947c.981-.13 1.85-.611 2.474-1.314v-.633h-4v4l2 1 2-1v-.133c-1.061-.278-1.947-.983-2.474-1.92z" fill="#cff09e"/><path d="m32 45c2.209 0 4-1.791 4-4v-4c-1.281 0-2.509-.509-3.414-1.414l-.586-.586-.586.586c-.905.905-2.133 1.414-3.414 1.414v4c0 2.209 1.791 4 4 4z" fill="#fff"/><path d="m32.586 35.586-.586-.586-.586.586c-.905.905-2.133 1.414-3.414 1.414v4c0 2.209 1.791 4 4 4 1.051 0 1.999-.414 2.713-1.076-.232.044-.468.076-.713.076-2.209 0-4-1.791-4-4v-1.449c.519-.237 1.003-.554 1.414-.965l.586-.586.586.586c.905.905 2.133 1.414 3.414 1.414v-2c-1.281 0-2.509-.509-3.414-1.414z" fill="#cff09e"/><path d="m32.332 54.507c.253.169.465.387.656.623.277-.084.568-.13.866-.13h1.146c1.657 0 3-1.343 3-3h-2v-1h4v6h-9c0-1.039.529-1.954 1.332-2.493z" fill="#cff09e"/><path d="m28 51v3h2c1.657 0 3 1.343 3 3h-9v-6z" fill="#fff"/><path d="m28 51v1h-2c0 1.657 1.343 3 3 3h1.146c1.136 0 2.175.642 2.683 1.658l.171.342h-9v-6z" fill="#cff09e"/></g><g><g fill="#79bd9a"><path d="m32 20h4v4h-4z"/><path d="m40 17h4v7h-4z"/><path d="m48 14h4v10h-4z"/></g><g><path d="m17.5 22.5c0 1.381 1.119 2.5 2.5 2.5s2.5-1.119 2.5-2.5v-1.5h-5z" fill="#79bd9a"/><path d="m25 16c0-2.761-2.239-5-5-5s-5 2.239-5 5c0 1.846 1.012 3.44 2.5 4.306v.694h5v-.694c1.488-.866 2.5-2.46 2.5-4.306z" fill="#fff"/><path d="m23 19c-3.314 0-6-2.686-6-6 0-.362.038-.715.099-1.059-1.266.907-2.099 2.382-2.099 4.059 0 1.846 1.012 3.44 2.5 4.306v.694h5v-.694c.61-.355 1.133-.837 1.546-1.403-.34.06-.689.097-1.046.097z" fill="#cff09e"/></g></g><g><g><path d="m15 51v2h6c1.105 0 2 .895 2 2v2h-10c-1.105 0-2-.895-2-2v-4z" fill="#fff"/><path d="m15 51v2h3c1.105 0 2 .895 2 2h.177c.974 0 1.763-.766 1.814-1.728.6.345 1.009.986 1.009 1.728v2h-10c-1.105 0-2-.895-2-2v-4z" fill="#cff09e"/><path d="m3 61h12v-13c0-1.657-1.343-3-3-3h-4c-2.761 0-5 2.239-5 5z" fill="#79bd9a"/><path d="m11 48h1c.552 0 1-.448 1-1v-4h-5v2c0 1.657 1.343 3 3 3z" fill="#fff"/><path d="m9 47c1.027 0 1.954-.398 2.662-1.034-1.708-.146-3.099-1.356-3.519-2.966h4.857v4c0 .552-.448 1-1 1h-1c-.896 0-1.692-.401-2.242-1.024.082.005.159.024.242.024z" fill="#cff09e"/><path d="m11 45c2.209 0 4-1.791 4-4v-4h-8v4c0 2.209 1.791 4 4 4z" fill="#fff"/><path d="m11 33c2.209 0 4 1.791 4 4h-8c0-2.209 1.791-4 4-4z" fill="#79bd9a"/><path d="m7.52 42.97c.69 1.21 1.99 2.03 3.48 2.03 2.21 0 4-1.79 4-4v-4h-3v1.83c0 2.09-1.53 3.95-3.61 4.15-.3.03-.58.02-.87-.01z" fill="#cff09e"/><path d="m13 53h4c1.105 0 2 .895 2 2v2h-6.757c-.796 0-1.559-.316-2.121-.879l-1.622-1.621 3-3z" fill="#fff"/><path d="m6.629 49.982h4.243v3.536h-4.243z" fill="#79bd9a" transform="matrix(.707 -.707 .707 .707 -34.03 21.344)"/><path d="m11.5 51.5 1 1-.793.793c-.391.391-.391 1.024 0 1.414.188.188.442.293.707.293h3.763c.974 0 1.763-.766 1.814-1.728.6.345 1.009.986 1.009 1.728v2h-6.757c-.796 0-1.559-.316-2.121-.879l-1.622-1.621z" fill="#cff09e"/></g></g><g><path d="m49 51v2h-6c-1.105 0-2 .895-2 2v2h10c1.105 0 2-.895 2-2v-4z" fill="#fff"/><path d="m49 51v2h-3c-1.105 0-2 .895-2 2h-.177c-.974 0-1.763-.766-1.814-1.728-.6.345-1.009.986-1.009 1.728v2h10c1.105 0 2-.895 2-2v-4z" fill="#cff09e"/><path d="m61 61h-12v-13c0-1.657 1.343-3 3-3h4c2.761 0 5 2.239 5 5z" fill="#79bd9a"/><path d="m53 48h-1c-.552 0-1-.448-1-1v-4h5v2c0 1.657-1.343 3-3 3z" fill="#fff"/><path d="m55 47c-1.027 0-1.954-.398-2.662-1.034 1.708-.145 3.099-1.356 3.519-2.966h-4.857v4c0 .552.448 1 1 1h1c.896 0 1.692-.401 2.242-1.024-.082.005-.159.024-.242.024z" fill="#cff09e"/><path d="m53 45c-2.209 0-4-1.791-4-4v-4h8v4c0 2.209-1.791 4-4 4z" fill="#fff"/><path d="m53 33h-4v4h8c0-2.209-1.791-4-4-4z" fill="#79bd9a"/><path d="m56.48 42.97c-.69 1.21-1.99 2.03-3.48 2.03-2.21 0-4-1.79-4-4v-4h3v1.83c0 2.09 1.53 3.95 3.61 4.15.3.03.58.02.87-.01z" fill="#cff09e"/><path d="m51 53h-4c-1.105 0-2 .895-2 2v2h6.757c.796 0 1.559-.316 2.121-.879l1.622-1.621-3-3z" fill="#fff"/><path d="m53.482 49.629h3.536v4.243h-3.536z" fill="#79bd9a" transform="matrix(.707 -.707 .707 .707 -20.41 54.225)"/><path d="m52.5 51.5-1 1 .793.793c.391.391.391 1.024 0 1.414-.188.188-.442.293-.707.293h-3.763c-.974 0-1.763-.766-1.814-1.728-.6.345-1.009.986-1.009 1.728v2h6.757c.796 0 1.559-.316 2.121-.879l1.622-1.621z" fill="#cff09e"/></g><path d="m13 57h38v4h-38z" fill="#a8dba8"/></g></g><g id="Stroke_close_copy"><g fill="#3b8686"><path d="m15 21c0 .552.448 1 1 1h.5v.5c0 1.93 1.57 3.5 3.5 3.5s3.5-1.57 3.5-3.5v-.5h.5c.552 0 1-.448 1-1 0-.423-.264-.78-.634-.926 1.028-1.097 1.634-2.548 1.634-4.074 0-3.309-2.691-6-6-6s-6 2.691-6 6c0 1.526.606 2.977 1.634 4.074-.37.146-.634.503-.634.926zm6.5 1.5c0 .827-.673 1.5-1.5 1.5s-1.5-.673-1.5-1.5v-.5h3zm-1.5-10.5c2.206 0 4 1.794 4 4 0 1.425-.749 2.712-2.003 3.442-.216.126-.368.327-.443.558h-.554v-2.586l1.707-1.707c.391-.391.391-1.023 0-1.414s-1.023-.391-1.414 0l-1.293 1.293-1.293-1.293c-.391-.391-1.023-.391-1.414 0s-.391 1.023 0 1.414l1.707 1.707v2.586h-.554c-.075-.231-.228-.432-.443-.558-1.254-.73-2.003-2.017-2.003-3.442 0-2.206 1.794-4 4-4z"/><circle cx="20" cy="7" r="1"/><circle cx="28.5" cy="15" r="1"/><circle cx="11.5" cy="15" r="1"/><path d="m15.05 10.05c.391-.391.391-1.024 0-1.414-.391-.391-1.024-.391-1.414 0-.391.391-.391 1.024 0 1.414s1.024.391 1.414 0z"/><path d="m26.364 10.05c.391-.391.391-1.024 0-1.414-.391-.391-1.024-.391-1.414 0-.391.391-.391 1.024 0 1.414.39.391 1.023.391 1.414 0z"/><path d="m32 25h4c.552 0 1-.448 1-1v-4c0-.552-.448-1-1-1h-4c-.552 0-1 .448-1 1v4c0 .552.448 1 1 1zm1-4h2v2h-2z"/><path d="m44 16h-4c-.552 0-1 .448-1 1v7c0 .552.448 1 1 1h4c.552 0 1-.448 1-1v-7c0-.552-.448-1-1-1zm-1 7h-2v-5h2z"/><path d="m47 14v10c0 .552.448 1 1 1h4c.552 0 1-.448 1-1v-10c0-.552-.448-1-1-1h-4c-.552 0-1 .448-1 1zm2 1h2v8h-2z"/><path d="m32.999 15c.037 0 .074-.002.112-.006l9-1c.17-.019.332-.081.471-.18l6.418-4.585v.771c0 .552.448 1 1 1s1-.448 1-1v-3c0-.552-.448-1-1-1h-3c-.552 0-1 .448-1 1s.448 1 1 1h.279l-5.649 4.035-8.741.972c-.549.061-.944.555-.883 1.104.057.511.49.889.993.889z"/><path d="m57 44.09v-.121c.62-.833 1-1.854 1-2.969v-4c0-2.757-2.243-5-5-5h-3v-3h2c3.309 0 6-2.691 6-6v-15c0-3.309-2.691-6-6-6h-40c-3.309 0-6 2.691-6 6v15c0 3.309 2.691 6 6 6h2v4c0 .01.004.019.004.029-.839-.637-1.872-1.029-3.004-1.029-2.757 0-5 2.243-5 5v4c0 1.116.38 2.136 1 2.969v.121c-2.833.479-5 2.943-5 5.91v11c0 .552.448 1 1 1s1-.448 1-1v-11c0-1.921 1.362-3.527 3.17-3.911.234.819.717 1.526 1.369 2.04-.086.046-.174.091-.246.164-.391.391-.391 1.023 0 1.414l1.793 1.793-1.586 1.586-1.793-1.793c-.391-.391-1.023-.391-1.414 0s-.391 1.023 0 1.414l4.121 4.121c.697.697 1.61 1.089 2.586 1.148v3.024c0 .552.448 1 1 1h38c.552 0 1-.448 1-1v-3.024c.976-.059 1.889-.451 2.586-1.148l4.121-4.121c.391-.391.391-1.023 0-1.414s-1.023-.391-1.414 0l-1.793 1.793-1.586-1.586 1.793-1.793c.391-.391.391-1.023 0-1.414-.073-.073-.16-.118-.246-.164.652-.514 1.136-1.221 1.369-2.04 1.808.384 3.17 1.99 3.17 3.911v11c0 .552.448 1 1 1s1-.448 1-1v-11c0-2.967-2.167-5.431-5-5.91zm-4 2.91h-1v-1.101c.323.066.658.101 1 .101.67 0 1.307-.137 1.891-.377-.264.797-1.007 1.377-1.891 1.377zm-5 1v4h-5c-.771 0-1.468.301-2 .78v-3.78c0-1.641-.806-3.088-2.031-4 1.225-.912 2.031-2.359 2.031-4v-2c0-4.017-2.646-7.425-6.286-8.58l.852-1.42h6.113l6.321 4.515v7.485c0 1.495.673 2.823 1.717 3.74-1.053.736-1.717 1.942-1.717 3.26zm-4 8h-2v-1c0-.551.449-1 1-1h1.184c-.112.314-.184.648-.184 1zm-24 0v-1c0-.352-.072-.686-.184-1h1.184c.551 0 1 .449 1 1v1zm-10.891-10.377c.584.24 1.221.377 1.891.377.342 0 .677-.035 1-.101v1.101h-1c-.884 0-1.627-.58-1.891-1.377zm4.891-4.623c0 1.654-1.346 3-3 3s-3-1.346-3-3v-3h6zm.283 3.74c1.044-.917 1.717-2.245 1.717-3.74v-4c0-1.134-.394-2.17-1.033-3.009.216.007.432-.047.614-.177l6.739-4.814h6.113l.852 1.42c-3.639 1.155-6.285 4.563-6.285 8.58v2c0 1.641.806 3.088 2.031 4-1.225.912-2.031 2.359-2.031 4v3.78c-.532-.48-1.229-.78-2-.78h-5v-4c0-1.318-.664-2.524-1.717-3.26zm24.717-5.74v2c0 1.654-1.346 3-3 3h-.026c.635-.838 1.026-1.87 1.026-3v-4c0-.552-.448-1-1-1-1.022 0-1.984-.398-2.707-1.121l-.586-.586c-.391-.391-1.023-.391-1.414 0l-.586.586c-.723.723-1.685 1.121-2.707 1.121-.552 0-1 .448-1 1v4c0 1.13.391 2.162 1.026 3h-.026c-1.654 0-3-1.346-3-3v-2c0-3.86 3.14-7 7-7s7 3.14 7 7zm0 10v1h-3c-.552 0-1 .448-1 1v2h-1c-.707 0-1.394.198-2.003.555-.59-.344-1.266-.555-1.997-.555h-1v-2c0-.552-.448-1-1-1h-3v-1c0-1.654 1.346-3 3-3h1v2c0 .379.214.725.553.895l2 1c.14.07.294.105.447.105s.307-.035.447-.105l2-1c.339-.17.553-.516.553-.895v-2h1c1.654 0 3 1.346 3 3zm-8-3.101c.323.066.658.101 1 .101s.677-.035 1-.101v1.483l-1 .5-1-.5zm4-4.899c0 1.654-1.346 3-3 3s-3-1.346-3-3v-3.085c1.122-.193 2.159-.709 3-1.504.841.795 1.878 1.312 3 1.504zm-10 11h2v2c0 .552.448 1 1 1h2c.739 0 1.385.403 1.731 1h-6.731zm8.858 4c-.085-.327-.213-.635-.373-.924.157-.044.325-.076.515-.076h2c.552 0 1-.448 1-1v-2h2v4zm22.142-15c0 1.654-1.346 3-3 3s-3-1.346-3-3v-3h6zm-.171-5h-5.829v-2h3c1.304 0 2.416.836 2.829 2zm-43.829-9c-2.206 0-4-1.794-4-4v-15c0-2.206 1.794-4 4-4h40c2.206 0 4 1.794 4 4v15c0 2.206-1.794 4-4 4h-3c-.552 0-1 .448-1 1v3.057l-5.419-3.871c-.169-.121-.373-.186-.581-.186h-7c-.351 0-.677.184-.857.485l-1.527 2.546c-.205-.014-.408-.031-.616-.031s-.411.017-.615.031l-1.527-2.546c-.181-.301-.507-.485-.858-.485h-7c-.208 0-.412.065-.581.186l-5.419 3.871v-3.057c0-.552-.448-1-1-1zm-1 7c1.304 0 2.416.836 2.829 2h-5.658c.413-1.164 1.525-2 2.829-2zm0 15h1c.923 0 1.694-.631 1.923-1.482.041.157.077.316.077.482v4h-.586l-3.066-3.066c.214.035.429.066.652.066zm-1.085 5.5 1.585-1.586.793.793c.187.188.442.293.707.293h4c.551 0 1 .449 1 1v1h-5.757c-.534 0-1.036-.208-1.414-.586zm40.085 5.5h-36v-2h36zm4.086-5.5-.914.914c-.378.378-.88.586-1.415.586h-5.757v-1c0-.551.449-1 1-1h4c.265 0 .52-.105.707-.293l.793-.793zm-3.5-2.5h-.586v-4c0-.166.036-.325.077-.482.229.851 1 1.482 1.923 1.482h1c.223 0 .438-.031.652-.066z"/></g></g></svg>