<svg id="Icons" height="512" viewBox="0 0 60 60" width="512" xmlns="http://www.w3.org/2000/svg"><path d="m30 13a22.988 22.988 0 0 0 -17.14 38.32 20.869 20.869 0 0 0 2.91 2.73 22.929 22.929 0 0 0 28.46 0 20.869 20.869 0 0 0 2.91-2.73 22.988 22.988 0 0 0 -17.14-38.32zm0 40a17 17 0 1 1 17-17 17 17 0 0 1 -17 17z" fill="#e8edfc"/><path d="m30 13c-.5 0-1 .022-1.5.054a22.983 22.983 0 0 1 15.64 38.266 20.869 20.869 0 0 1 -2.91 2.73 22.828 22.828 0 0 1 -12.73 4.886c.5.032 1 .064 1.5.064a22.837 22.837 0 0 0 14.23-4.95 20.869 20.869 0 0 0 2.91-2.73 22.988 22.988 0 0 0 -17.14-38.32z" fill="#cad9fc"/><circle cx="30" cy="36" fill="#c6d8fb" r="5"/><path d="m30 19a17 17 0 1 0 17 17 17 17 0 0 0 -17-17zm0 28a11 11 0 1 1 11-11 10.994 10.994 0 0 1 -11 11z" fill="#c6d8fb"/><path d="m30 19c-.506 0-1 .032-1.5.076a16.989 16.989 0 0 1 0 33.848c.5.044.994.076 1.5.076a17 17 0 0 0 0-34z" fill="#cad9fc"/><path d="m30 25a11 11 0 1 0 11 11 10.994 10.994 0 0 0 -11-11zm0 16a5 5 0 1 1 5-5 5 5 0 0 1 -5 5z" fill="#e8edfc"/><path d="m15.77 54.05-4.36 4.36a1.994 1.994 0 0 1 -2.82-2.82l4.27-4.27a20.869 20.869 0 0 0 2.91 2.73z" fill="#a4c2f7"/><path d="m51.41 58.41a1.98 1.98 0 0 1 -2.82 0l-4.36-4.36a20.869 20.869 0 0 0 2.91-2.73l4.27 4.27a1.974 1.974 0 0 1 0 2.82z" fill="#a4c2f7"/><path d="m51.41 55.59-4.27-4.27c-.467.531-.966 1.034-1.484 1.516l2.754 2.754a1.967 1.967 0 0 1 .082 2.721l.1.1a1.994 1.994 0 0 0 2.82-2.82z" fill="#7facfa"/><path d="m30 10a7.6 7.6 0 0 1 4-1c2.739 0 3.348 1 6 1a12.978 12.978 0 0 0 4.351-.734.989.989 0 0 0 .649-.937v-5.9a1 1 0 0 0 -1.285-.957 13.27 13.27 0 0 1 -3.715.528c-2.652 0-3.261-1-6-1a7.6 7.6 0 0 0 -4 1z" fill="#e8edfc"/><path d="m43.715 1.474a13.2 13.2 0 0 1 -1.9.4.98.98 0 0 1 .18.562v5.9a.989.989 0 0 1 -.649.937 12.612 12.612 0 0 1 -2.687.627 8.318 8.318 0 0 0 1.341.1 12.978 12.978 0 0 0 4.351-.734.989.989 0 0 0 .649-.937v-5.9a1 1 0 0 0 -1.285-.955z" fill="#cad9fc"/><path d="m18.77 54.05a20.869 20.869 0 0 1 -2.91-2.73 22.983 22.983 0 0 1 15.64-38.266c-.5-.032-1-.054-1.5-.054a22.988 22.988 0 0 0 -17.14 38.32 20.869 20.869 0 0 0 2.91 2.73 22.837 22.837 0 0 0 14.23 4.95c.5 0 1-.032 1.5-.064a22.828 22.828 0 0 1 -12.73-4.886z" fill="#fff"/><path d="m7.458 27.825 1.88.682a22.622 22.622 0 0 0 -1.338 7.493h-2a24.63 24.63 0 0 1 1.458-8.175z" fill="#fff"/><g fill="#428dff"><path d="m7.384 33.017a1 1 0 0 1 -.01-2h.01a1 1 0 1 1 0 2z"/><path d="m6 36a23.892 23.892 0 0 0 5.5 15.269l-3.61 3.609a2.994 2.994 0 1 0 4.23 4.239l3.742-3.742a23.931 23.931 0 0 0 28.282 0l3.743 3.743a2.994 2.994 0 1 0 4.233-4.235l-3.62-3.614a23.985 23.985 0 0 0 -17.5-39.244v-1.425a7.334 7.334 0 0 1 3-.6 8.45 8.45 0 0 1 2.764.463 10.075 10.075 0 0 0 3.236.537 13.918 13.918 0 0 0 4.691-.793 2 2 0 0 0 1.309-1.878v-5.9a2 2 0 0 0 -2.567-1.914 12.329 12.329 0 0 1 -3.433.485 8.063 8.063 0 0 1 -2.657-.451 10.388 10.388 0 0 0 -3.343-.549 9.568 9.568 0 0 0 -3.142.516.988.988 0 0 0 -.858-.516 1 1 0 0 0 -1 1v11.05a26.312 26.312 0 0 0 -6.224 1.061 25.226 25.226 0 0 0 -6.545 3.249 23.653 23.653 0 0 0 -5.265 5.06c-.353.5-.761.959-1.067 1.489l-.952 1.568a25.467 25.467 0 0 0 -1.489 3.348.963.963 0 0 0 .6 1.28 1.044 1.044 0 0 0 1.284-.6 23.33 23.33 0 0 1 1.358-3.066l.874-1.439c.278-.487.657-.907.979-1.365a21.646 21.646 0 0 1 4.827-4.635 23.272 23.272 0 0 1 6-2.979 24.305 24.305 0 0 1 5.62-.97v4a18 18 0 1 0 2 0v-4.026a22 22 0 1 1 -23 21.975 1 1 0 0 0 -2 0zm30.764-33.537a10.075 10.075 0 0 0 3.236.537 14.27 14.27 0 0 0 4-.569l.011 5.9a12.052 12.052 0 0 1 -4.011.669 8.063 8.063 0 0 1 -2.657-.451 10.388 10.388 0 0 0 -3.343-.549 9.572 9.572 0 0 0 -3 .47v-5.87a7.334 7.334 0 0 1 3-.6 8.45 8.45 0 0 1 2.764.463zm-6.764 34.537a1 1 0 0 0 1-1v-3.858a4 4 0 1 1 -2 0v3.858a1 1 0 0 0 1 1zm-1-6.91a6 6 0 1 0 2 0v-4.039a10 10 0 1 1 -2 0zm17 5.91a16 16 0 1 1 -17-15.949v4a12 12 0 1 0 2 0v-4a16.007 16.007 0 0 1 15 15.949zm4.707 20.3a.973.973 0 0 1 0 1.4 1 1 0 0 1 -1.407 0l-3.585-3.585q.751-.653 1.449-1.363zm-40 1.4a1 1 0 0 1 -1.412 0 .977.977 0 0 1 .005-1.4l3.542-3.542q.7.711 1.449 1.363z"/></g></svg>